<svg xmlns="http://www.w3.org/2000/svg" version="1.1" xmlns:xlink="http://www.w3.org/1999/xlink" xmlns:svgjs="http://svgjs.dev/svgjs" width="1000" height="1000" viewBox="0 0 1000 1000"><rect width="1000" height="1000" fill="#ffffff"></rect><g transform="matrix(0.7,0,0,0.7,149.57575757575756,425.3760301665782)"><svg viewBox="0 0 396 84" data-background-color="#f9e17e" preserveAspectRatio="xMidYMid meet" height="212" width="1000" xmlns="http://www.w3.org/2000/svg" xmlns:xlink="http://www.w3.org/1999/xlink"><defs></defs><g id="tight-bounds" transform="matrix(1,0,0,1,0.2400000000000091,0.23998292457838488)"><svg viewBox="0 0 395.52 83.52003415084324" height="83.52003415084324" width="395.52"><g><svg viewBox="0 0 395.52 83.52003415084324" height="83.52003415084324" width="395.52"><g><svg viewBox="0 0 395.52 83.52003415084324" height="83.52003415084324" width="395.52"><g><svg viewBox="0 0 395.52 83.52003415084324" height="83.52003415084324" width="395.52"><g><rect width="395.52" height="69.65329280027395" fill="none" stroke-width="9.018103199999999" stroke="#454545" data-fill-palette-color="none" data-stroke-palette-color="tertiary"></rect><rect width="395.52" height="13.866741350569301" y="69.65329280027395" fill="#454545" data-fill-palette-color="tertiary"></rect></g><g><svg viewBox="0 0 395.52 69.65329280027395" height="69.65329280027395" width="395.52"><g transform="matrix(1,0,0,1,23.607599999999998,23.607599999999998)"><svg width="348.3048" viewBox="4.909999847412109 -36.25 570.3099975585938 36.7400016784668" height="22.43809280027395" data-palette-color="#454545"><path d="M24.8-3.71L24.8 0 4.91 0 4.91-35.69 24.8-35.69 24.8-32.01 9.06-32.01 9.06-20.51 23.85-20.51 23.85-16.85 9.06-16.85 9.06-3.71 24.8-3.71ZM36.86-15.26L36.86 0 32.71 0 32.71-35.69 52.61-35.69 52.61-32.01 36.86-32.01 36.86-18.95 51.66-18.95 51.66-15.26 36.86-15.26ZM62.67-15.26L62.67 0 58.52 0 58.52-35.69 78.41-35.69 78.41-32.01 62.67-32.01 62.67-18.95 77.46-18.95 77.46-15.26 62.67-15.26ZM115.3-17.9L115.3-17.9Q115.3-9.33 110.97-4.42 106.63 0.49 98.92 0.49L98.92 0.49Q91.03 0.49 86.75-4.33 82.46-9.16 82.46-17.94L82.46-17.94Q82.46-26.66 86.76-31.46 91.06-36.25 98.97-36.25L98.97-36.25Q106.66-36.25 110.98-31.37 115.3-26.49 115.3-17.9ZM86.86-17.9L86.86-17.9Q86.86-10.64 89.95-6.9 93.03-3.15 98.92-3.15L98.92-3.15Q104.85-3.15 107.88-6.88 110.91-10.62 110.91-17.9L110.91-17.9Q110.91-25.1 107.89-28.82 104.88-32.54 98.97-32.54L98.97-32.54Q93.03-32.54 89.95-28.8 86.86-25.05 86.86-17.9ZM134.85-14.84L127.41-14.84 127.41 0 123.26 0 123.26-35.69 133.05-35.69Q139.61-35.69 142.75-33.18 145.89-30.66 145.89-25.61L145.89-25.61Q145.89-18.53 138.71-16.04L138.71-16.04 148.4 0 143.5 0 134.85-14.84ZM127.41-32.06L127.41-18.41 133.1-18.41Q137.49-18.41 139.54-20.15 141.59-21.9 141.59-25.39L141.59-25.39Q141.59-28.93 139.5-30.49 137.42-32.06 132.8-32.06L132.8-32.06 127.41-32.06ZM165.15-32.01L165.15 0 161 0 161-32.01 149.69-32.01 149.69-35.69 176.45-35.69 176.45-32.01 165.15-32.01ZM213.95 0L210.6 0 198.49-31.64 198.3-31.64Q198.64-27.88 198.64-22.71L198.64-22.71 198.64 0 194.81 0 194.81-35.69 201.06-35.69 212.36-6.25 212.56-6.25 223.96-35.69 230.16-35.69 230.16 0 226.01 0 226.01-23Q226.01-26.95 226.35-31.59L226.35-31.59 226.15-31.59 213.95 0ZM259.84-3.71L259.84 0 239.95 0 239.95-35.69 259.84-35.69 259.84-32.01 244.1-32.01 244.1-20.51 258.89-20.51 258.89-16.85 244.1-16.85 244.1-3.71 259.84-3.71ZM278.74-32.01L278.74 0 274.59 0 274.59-32.01 263.28-32.01 263.28-35.69 290.04-35.69 290.04-32.01 278.74-32.01ZM322.14 0L317.85 0 313.4-11.35 299.1-11.35 294.7 0 290.5 0 304.61-35.84 308.1-35.84 322.14 0ZM300.56-15.09L312.11-15.09 307.96-26.15Q307.15-28.25 306.3-31.3L306.3-31.3Q305.76-28.96 304.76-26.15L304.76-26.15 300.56-15.09ZM346.95 0L327.05 0 327.05-35.69 331.2-35.69 331.2-3.76 346.95-3.76 346.95 0ZM381.27-32.5L381.27-32.5Q375.38-32.5 371.98-28.58 368.57-24.66 368.57-17.85L368.57-17.85Q368.57-10.84 371.85-7.02 375.14-3.2 381.22-3.2L381.22-3.2Q384.95-3.2 389.74-4.54L389.74-4.54 389.74-0.9Q386.03 0.49 380.58 0.49L380.58 0.49Q372.7 0.49 368.41-4.3 364.13-9.08 364.13-17.9L364.13-17.9Q364.13-23.41 366.19-27.56 368.25-31.71 372.15-33.96 376.04-36.21 381.32-36.21L381.32-36.21Q386.93-36.21 391.13-34.16L391.13-34.16 389.37-30.59Q385.32-32.5 381.27-32.5ZM428.51-17.9L428.51-17.9Q428.51-9.33 424.17-4.42 419.84 0.49 412.12 0.49L412.12 0.49Q404.24 0.49 399.95-4.33 395.67-9.16 395.67-17.94L395.67-17.94Q395.67-26.66 399.97-31.46 404.26-36.25 412.17-36.25L412.17-36.25Q419.86-36.25 424.18-31.37 428.51-26.49 428.51-17.9ZM400.06-17.9L400.06-17.9Q400.06-10.64 403.15-6.9 406.24-3.15 412.12-3.15L412.12-3.15Q418.06-3.15 421.08-6.88 424.11-10.62 424.11-17.9L424.11-17.9Q424.11-25.1 421.1-28.82 418.08-32.54 412.17-32.54L412.17-32.54Q406.24-32.54 403.15-28.8 400.06-25.05 400.06-17.9ZM463.19 0L458.9 0 454.45-11.35 440.15-11.35 435.75 0 431.55 0 445.67-35.84 449.16-35.84 463.19 0ZM441.61-15.09L453.16-15.09 449.01-26.15Q448.2-28.25 447.35-31.3L447.35-31.3Q446.81-28.96 445.81-26.15L445.81-26.15 441.61-15.09ZM479.09-32.01L479.09 0 474.94 0 474.94-32.01 463.63-32.01 463.63-35.69 490.39-35.69 490.39-32.01 479.09-32.01ZM499.91 0L495.76 0 495.76-35.69 499.91-35.69 499.91 0ZM537.58-35.69L537.58 0 532.84 0 513.33-29.96 513.14-29.96Q513.53-24.68 513.53-20.29L513.53-20.29 513.53 0 509.7 0 509.7-35.69 514.38-35.69 533.84-5.86 534.04-5.86Q533.99-6.52 533.82-10.1 533.65-13.67 533.7-15.21L533.7-15.21 533.7-35.69 537.58-35.69ZM563.09-14.99L563.09-18.7 575.22-18.7 575.22-1.34Q572.39-0.44 569.46 0.02 566.53 0.49 562.67 0.49L562.67 0.49Q554.57 0.49 550.05-4.33 545.53-9.16 545.53-17.85L545.53-17.85Q545.53-23.41 547.77-27.6 550-31.79 554.2-34 558.4-36.21 564.04-36.21L564.04-36.21Q569.75-36.21 574.68-34.11L574.68-34.11 573.07-30.44Q568.24-32.5 563.77-32.5L563.77-32.5Q557.25-32.5 553.59-28.61 549.93-24.73 549.93-17.85L549.93-17.85Q549.93-10.62 553.46-6.88 556.98-3.15 563.82-3.15L563.82-3.15Q567.53-3.15 571.07-4L571.07-4 571.07-14.99 563.09-14.99Z" opacity="1" transform="matrix(1,0,0,1,0,0)" fill="#000000" class="undefined-text-0" data-fill-palette-color="primary" id="text-0"></path></svg></g></svg></g></svg></g></svg></g></svg></g></svg><rect width="395.52" height="83.52003415084324" fill="none" stroke="none" visibility="hidden"></rect></g></svg></g></svg>